Coordinates
version=1
nRows=20
nColumns=34
inDegrees=yes

Units are S.I. units (second, meters, Newtons, ...)
If the header above contains a line with 'inDegrees', this indicates whether rotational values are in degrees (yes) or radians (no).

endheader
time	pelvis_tilt	pelvis_list	pelvis_rotation	pelvis_tx	pelvis_ty	pelvis_tz	hip_flexion_r	hip_adduction_r	hip_rotation_r	knee_angle_r	ankle_angle_r	subtalar_angle_r	mtp_angle_r	hip_flexion_l	hip_adduction_l	hip_rotation_l	knee_angle_l	ankle_angle_l	subtalar_angle_l	mtp_angle_l	lumbar_extension	lumbar_bending	lumbar_rotation	arm_flex_r	arm_add_r	arm_rot_r	elbow_flex_r	pro_sup_r	arm_flex_l	arm_add_l	arm_rot_l	elbow_flex_l	pro_sup_l
      6.66666670	    -37.68222679	      6.04972926	     -4.37325516	      1.05344622	      0.87134359	     -0.06255919	     67.13422477	     -9.43887402	     -0.19912288	     39.08634181	     10.83443733	    -18.82517480	      0.00000000	     68.85314283	     -5.91538342	     -7.52035665	     41.52141254	      8.56476049	    -10.13482575	      0.00000000	     -8.98341375	     -3.82343671	      2.60282477	     47.36461508	    -15.46701269	     38.48357845	     83.30971180	     71.15934469	     53.69005847	     -9.22513742	     31.04925484	     41.40329995	     50.75730811
      6.68333330	    -35.31620220	      5.55700177	     -4.36515720	      1.06688697	      0.90072026	     -0.06550867	     61.27545449	     -9.55520402	     -1.31111849	     34.45848209	      9.26685171	    -18.01345510	      0.00000000	     63.27199671	     -4.98056180	     -6.68717165	     37.09028262	      7.24594429	    -10.22919810	      0.00000000	     -8.76095075	     -3.06326641	      2.41725584	     42.06159294	    -17.00827248	     36.00819651	     80.56644245	     71.83628179	     49.94754116	    -11.89483480	     30.41445515	     40.06439133	     51.47734332
      6.70000000	    -33.13566973	      5.55055762	     -4.67504005	      1.06830913	      0.90878618	     -0.06689117	     56.68584879	     -9.67727892	     -2.04360250	     30.72664763	      8.05131458	    -17.82955102	      0.00000000	     58.49028585	     -4.13339915	     -6.23711954	     33.22649806	      6.07791633	    -10.84580519	      0.00000000	     -8.31801447	     -2.90576473	      2.59747543	     37.52961048	    -18.61856211	     33.07979246	     78.09034873	     72.69039216	     46.47951245	    -14.45710844	     29.27352523	     38.51437217	     52.34337842
      6.71666670	    -31.24315132	      5.41646101	     -5.03123490	      1.07352763	      0.92286919	     -0.06460937	     52.51853274	     -9.47988243	     -2.61276502	     27.17654777	      6.82738303	    -17.21282195	      0.00000000	     54.22502491	     -3.61886628	     -5.60913016	     29.63824808	      4.76253625	    -11.46816191	      0.00000000	     -8.06929413	     -3.09965781	      4.04971771	     31.45573219	    -20.62889469	     26.55797350	     77.38386972	     86.67347992	     43.76905951	    -15.58428716	     24.97652688	     36.48974057	     66.70317434
      6.73333330	    -29.65230049	      5.12090248	     -5.18459860	      1.07576918	      0.92816528	     -0.06640300	     49.02988671	     -9.39171840	     -3.19244856	     24.01260762	      6.23966515	    -16.73803992	      0.00000000	     50.83700759	     -3.14524285	     -4.61012308	     26.72928881	      4.09380537	    -12.00549551	      0.00000000	     -7.14506134	     -2.50229469	      3.69864474	     27.54574550	    -22.08464380	     24.18262269	     75.12322962	     86.45735644	     40.70195736	    -18.47531230	     24.04744441	     35.47898247	     66.92683930
      6.75000000	    -27.54327644	      4.84211719	     -5.46027262	      1.08176997	      0.94793153	     -0.06198768	     44.95199897	     -9.05950675	     -3.80939247	     20.84920359	      4.89819005	    -15.85060076	      0.00000000	     46.66923213	     -2.91670902	     -3.81170294	     23.33899658	      2.69000748	    -12.32373343	      0.00000000	     -7.34364839	     -2.32794134	      3.79969573	     23.71727494	    -22.76456792	     21.05421196	     72.05595490	     86.33029423	     37.89760136	    -21.02234571	     22.69977985	     34.45225775	     67.15644415
      6.76666670	    -25.29384903	      4.46946164	     -5.74593779	      1.09184211	      0.96144941	     -0.05857457	     40.52484480	     -8.56502816	     -4.67757826	     17.50647601	      3.79599788	    -14.78837240	      0.00000000	     42.19135774	     -2.91041589	     -3.25716306	     20.02507794	      1.77495811	    -11.94352897	      0.00000000	     -7.64129414	     -2.19976417	      3.88826198	     19.60621226	    -23.14850376	     17.79825677	     68.44990439	     86.31856511	     34.84180297	    -23.38059046	     21.12929817	     33.29267838	     67.32407269
      6.78333330	    -22.98350401	      4.06230608	     -6.02149573	      1.10112995	      0.96605931	     -0.05519284	     36.13315382	     -8.03182007	     -5.45426996	     14.68906915	      3.19702934	    -13.67520511	      0.00000000	     37.84307796	     -3.02031394	     -2.87542799	     17.27789608	      1.29363484	    -11.57290548	      0.00000000	     -7.65847546	     -2.11914964	      4.02698660	     15.18469159	    -23.37230419	     14.28919643	     65.44467314	     86.41002676	     31.31681970	    -25.74816518	     19.07118764	     32.27098724	     67.40258199
      6.80000000	    -21.49585209	      3.91245090	     -6.02564795	      1.10394069	      0.96275213	     -0.05966607	     33.17880957	     -7.99847524	     -5.70467575	     12.79075733	      3.08238476	    -12.91773389	      0.00000000	     35.03654997	     -2.77543080	     -2.96519143	     15.34635475	      0.98558408	    -11.29438125	      0.00000000	     -6.99291789	     -2.11878069	      4.76974385	      9.73027151	    -23.93019278	      8.69522640	     64.39594485	     87.26675411	     27.64089163	    -27.07403544	     13.84520692	     33.02402480	     67.68062935
      6.81666670	    -19.73425898	      3.38274263	     -5.60702979	      1.11117001	      0.96650016	     -0.06020523	     29.76770636	     -7.90793620	     -6.25656161	     10.96541452	      2.79817329	    -12.81457451	      0.00000000	     32.10623926	     -2.62273319	     -2.20457274	     13.88461459	      1.40897980	    -11.20169387	      0.00000000	     -6.29883958	     -1.52762366	      4.55800329	      5.35814097	    -24.57807589	      5.25235923	     62.00266631	     87.50560308	     23.91487203	    -28.92198001	     11.58066313	     32.53135923	     67.83645746
      6.83333330	    -18.63640115	      3.24803036	     -5.56331425	      1.11832331	      0.96541539	     -0.05765030	     27.45898414	     -7.78575955	     -5.88743633	      9.54728897	      2.86948237	    -12.84042766	      0.00000000	     29.89157430	     -2.48282316	     -2.00426935	     12.49827629	      1.30180602	    -11.21645159	      0.00000000	     -5.25879418	     -1.45774026	      5.41198701	     -0.41213311	    -24.42760190	     -1.55830828	     61.15625388	     88.30807331	     19.76511982	    -29.99578617	      4.90596459	     34.08565950	     67.97874490
      6.85000000	    -17.18140505	      2.97384572	     -5.38738636	      1.12213921	      0.97319230	     -0.05551639	     24.72061935	     -7.58454760	     -5.91388250	      8.07646288	      2.72917145	    -12.52402332	      0.00000000	     27.43329884	     -2.45444133	     -1.46880185	     11.32292892	      1.38623153	    -11.08550635	      0.00000000	     -4.61164097	     -1.20862335	      5.29902071	     -3.77890610	    -24.05095235	     -6.23369005	     58.17940088	     88.93392981	     16.29784541	    -31.29832275	      0.54747694	     33.95040303	     68.43572959
      6.86666670	    -15.43459521	      2.70270682	     -5.09570652	      1.13041304	      0.98636268	     -0.05449450	     21.50304793	     -7.45801754	     -6.29851287	      6.52761084	      2.09809477	    -11.77151729	      0.00000000	     24.54366107	     -2.39817612	     -0.95059444	     10.01153886	      1.02465527	    -10.73679590	      0.00000000	     -4.40480215	     -0.98490846	      4.92208609	     -6.50679104	    -23.10635423	    -10.88965318	     54.34518749	     89.30443054	     12.64651222	    -32.13124901	     -3.87177803	     33.46954697	     68.69386460
      6.88333330	    -13.57480668	      2.32059545	     -4.58228673	      1.13551465	      0.98896301	     -0.05543432	     18.27581706	     -7.26567685	     -7.02014862	      5.23693670	      1.08292140	    -11.65058123	      0.00000000	     21.70302427	     -2.36224124	     -0.36300793	      8.89065409	      1.03515919	    -10.32062354	      0.00000000	     -4.44104336	     -0.53842976	      4.06470350	     -8.61609714	    -22.65610320	    -14.77146431	     50.84386256	     89.03279896	      9.29201999	    -33.10791640	     -6.26529482	     32.12078935	     68.57771415
      6.90000000	    -12.20478995	      2.22400055	     -4.55040519	      1.13508176	      0.99484393	     -0.05225995	     15.98967046	     -7.06619113	     -7.23152180	      4.00771230	      0.78019495	    -10.96382137	      0.00000000	     19.45509590	     -2.36493943	     -0.33654128	      7.76975654	      0.48940001	     -9.60073041	      0.00000000	     -4.31569593	     -0.44590012	      3.94891009	    -10.76626408	    -21.37408568	    -20.97059493	     47.48126949	     88.66293965	      5.82777433	    -33.05316018	    -13.19891073	     32.50178992	     67.95415331
      6.91666670	    -10.61005222	      1.98067174	     -4.28606758	      1.14144627	      0.98420097	     -0.05108189	     13.48365577	     -6.81987368	     -7.28135666	      3.19851898	      0.46519007	    -11.43834559	      0.00000000	     17.19946163	     -2.44617275	     -0.10280973	      7.11647031	      0.57770586	     -9.60935676	      0.00000000	     -4.31744135	     -0.05557602	      3.39772112	    -12.86772333	    -20.75501320	    -26.09709628	     44.31441839	     87.97676899	      1.89812302	    -33.51419182	    -18.45160382	     32.65363930	     67.45445151
      6.93333330	     -9.29412223	      1.83358567	     -4.14940231	      1.14433599	      0.98986890	     -0.05107784	     11.52545453	     -6.67813305	     -7.88461008	      2.71307736	     -0.18081994	    -11.99764686	      0.00000000	     15.33742557	     -2.52058571	      0.07096143	      6.55306283	      0.52192392	     -9.35352482	      0.00000000	     -4.09763208	      0.27329512	      3.05182151	    -14.79431807	    -20.06539904	    -31.30832012	     41.34109997	     86.88253448	     -1.70509397	    -33.19473819	    -24.37508447	     32.60025515	     66.69763699
      6.95000000	     -7.76377029	      1.67486243	     -3.70673376	      1.14920877	      0.99173779	     -0.05000173	      9.29579204	     -6.60955480	     -8.28037913	      2.28457662	     -0.46562859	    -12.59261165	      0.00000000	     13.35142769	     -2.51536202	      0.87333907	      6.15841936	      0.82709197	     -9.35835773	      0.00000000	     -4.16890825	      0.56308994	      2.49808783	    -16.51394535	    -19.70911590	    -36.14716223	     37.59291947	     85.62706397	     -5.29301478	    -32.92932308	    -28.63633189	     32.22031097	     65.95987774
      6.96666670	     -6.99477754	      1.59544221	     -3.67909590	      1.15233030	      0.99030030	     -0.05062621	      8.09356356	     -6.54684804	     -8.46491521	      2.13548793	     -0.65338690	    -12.99442162	      0.00000000	     12.09678905	     -2.58307940	      0.78705371	      5.77527168	      0.96321452	     -9.15127612	      0.00000000	     -3.58203164	      0.84685063	      2.11148116	    -18.22083690	    -19.10235139	    -42.33330418	     35.32864938	     83.28871092	     -9.36553614	    -31.41986993	    -36.47490334	     33.32856764	     64.38972800
      6.98333330	     -5.97992916	      1.39631070	     -3.60619672	      1.15285938	      0.99019180	     -0.04685632	      6.73503569	     -6.27437857	     -8.51363843	      1.89809142	     -0.82965851	    -13.81369997	      0.00000000	     10.64750313	     -2.77761196	      1.03247502	      5.41164243	      1.11497052	     -9.26361111	      0.00000000	     -3.30835357	      0.98329499	      1.70035932	    -19.24913867	    -18.74423504	    -47.15270820	     31.88220478	     81.09333786	    -12.27182456	    -30.69436881	    -41.55865931	     32.45001816	     63.22519710
